<svg xmlns="http://www.w3.org/2000/svg" viewBox="0 0 194.96 27.2"><defs><style>.cls-1{fill:#fff;}</style></defs><title>invAsset 2</title><g id="Layer_2" data-name="Layer 2"><g id="Layer_1-2" data-name="Layer 1"><path class="cls-1" d="M18.12,0V4.56H4.52L0,0ZM4.52,11.35h13.6v4.53H0V11.35Zm0,11.29h13.6V27.2H0v-.38Z"/><path class="cls-1" d="M45.64,13.6a12.9,12.9,0,0,1-1,5.23,15,15,0,0,1-2.92,4.36,13.85,13.85,0,0,1-4.36,2.92A13.11,13.11,0,0,1,32,27.2H23l4.52-4.56H32A9.42,9.42,0,0,0,35.58,22a8.84,8.84,0,0,0,2.89-2,9.78,9.78,0,0,0,1.94-2.89,9,9,0,0,0,0-7,9.33,9.33,0,0,0-2-2.89,9.44,9.44,0,0,0-2.89-2A9.18,9.18,0,0,0,32,4.56H27.52L23,0h9a13.05,13.05,0,0,1,5.27,1.09A13.9,13.9,0,0,1,41.63,4a14.39,14.39,0,0,1,3,4.35A13,13,0,0,1,45.64,13.6Z"/><path class="cls-1" d="M70.91,15.88a10.82,10.82,0,0,1-3.34,8,11.36,11.36,0,0,1-16,0,11,11,0,0,1-3.3-8V0h4.53V15.88a6.8,6.8,0,0,0,13.59,0Z"/><path class="cls-1" d="M77.23,23.19a14.2,14.2,0,0,1-2.92-4.36,13.17,13.17,0,0,1-1.09-5.23,13.37,13.37,0,0,1,1.09-5.3A13.88,13.88,0,0,1,77.23,4a13.59,13.59,0,0,1,4.35-2.92,13.51,13.51,0,0,1,10.54,0,14.1,14.1,0,0,1,4.35,3L93.24,7.17a8.82,8.82,0,0,0-6.39-2.61,9.21,9.21,0,0,0-3.53.68,8.44,8.44,0,0,0-2.89,2,9.23,9.23,0,0,0-1.94,2.85,8.85,8.85,0,0,0-.71,3.54,8.77,8.77,0,0,0,.71,3.53,8.87,8.87,0,0,0,2,2.86,8.71,8.71,0,0,0,2.86,2,9.52,9.52,0,0,0,3.53.68l5.27,3.5a12.93,12.93,0,0,1-5.27,1.06,13.15,13.15,0,0,1-5.27-1.09A14.28,14.28,0,0,1,77.23,23.19Z"/><path class="cls-1" d="M103.85,22.64l-2.31,4.56h-5L110.11,0l9.08,18.15h-5.1l-4-8-4,8Zm19.86,4.56h-5.07l-2.24-4.52h5Z"/><path class="cls-1" d="M144.31,13.6a7.54,7.54,0,0,1,2.38,5.68,7.71,7.71,0,0,1-.61,3.06,7.58,7.58,0,0,1-1.7,2.51,7.91,7.91,0,0,1-2.55,1.74,7.81,7.81,0,0,1-3.06.61h-10.2V22.64h10.2a3.32,3.32,0,0,0,1.29-.24,2.82,2.82,0,0,0,1.13-.74,3.48,3.48,0,0,0,.71-1.09,3.24,3.24,0,0,0,0-2.59,3.43,3.43,0,0,0-.71-1.08,3.3,3.3,0,0,0-1.06-.75,3.7,3.7,0,0,0-1.36-.27H124.05V11.35h14.72a2.75,2.75,0,0,0,1.29-.27,2.84,2.84,0,0,0,1.13-.75,3.5,3.5,0,0,0,1-2.41,3.39,3.39,0,0,0-.27-1.29,3.48,3.48,0,0,0-.71-1.09,2.84,2.84,0,0,0-1.13-.75,3.31,3.31,0,0,0-1.29-.23h-10.2L124.05,0h14.72a7.85,7.85,0,0,1,3.06.61,7.75,7.75,0,0,1,2.55,1.74,7.58,7.58,0,0,1,1.7,2.51,7.64,7.64,0,0,1,.61,3.06A7.66,7.66,0,0,1,144.31,13.6Z"/><path class="cls-1" d="M156.1,0V16.49L151.58,21V0Zm13.6,22.64V27.2H151.58l4.52-4.56Z"/><path class="cls-1" d="M195,0V4.56h-13.6L176.84,0Zm-13.6,11.35H195v4.53H176.84V11.35Zm0,11.29H195V27.2H176.84v-.38Z"/></g></g></svg>